# Wavefront Obj file
# 
# verts: 144 uv-s: 306
mtllib taru.mtl

g Cylinder
#pivot 0.000000 0.000000 0.000000

v -0.866025 0.403292 0.500000
v -0.342020 0.403292 0.939693
v -0.353473 0.398659 0.971158
v -0.895024 0.398659 0.516742
v 0.000000 0.672536 -0.967800
v 0.622090 0.672536 -0.741378
v 0.642920 0.676918 -0.766203
v 0.000000 0.676918 -1.000206
v -0.622090 0.672536 -0.741378
v -0.642920 0.676918 -0.766203
v 0.342020 0.403292 0.939693
v 0.353472 0.398659 0.971158
v 0.953097 0.672536 -0.168057
v 0.985011 0.676918 -0.173684
v 0.866025 0.403292 0.500000
v 0.895024 0.398659 0.516742
v 0.838139 0.672536 0.483900
v 0.866204 0.676918 0.500103
v 0.984808 0.403292 -0.173648
v 1.017784 0.398659 -0.179463
v 0.331007 0.672536 0.909434
v 0.342091 0.676918 0.939887
v 0.842302 -0.601229 0.486303
v 0.957830 -0.601229 -0.168891
v 0.989267 -0.605228 -0.174434
v 0.869947 -0.605228 0.502264
v -0.984808 -0.358673 -0.173648
v -0.642788 -0.358673 -0.766044
v -0.663885 -0.354711 -0.791187
v -1.017130 -0.354711 -0.179347
v 0.332651 -0.601229 0.913951
v 0.343569 -0.605228 0.943948
v 0.000000 -0.358673 -1.000000
v 0.642788 -0.358673 -0.766044
v 0.663885 -0.354711 -0.791187
v 0.000000 -0.354711 -1.032821
v -0.332651 -0.601229 0.913951
v -0.343569 -0.605228 0.943948
v 0.984808 -0.358673 -0.173648
v 1.017130 -0.354711 -0.179347
v -0.842302 -0.601229 0.486303
v -0.869947 -0.605228 0.502264
v 0.866025 -0.358673 0.500000
v 0.894449 -0.354711 0.516411
v 0.642788 0.403292 -0.766044
v 0.664311 0.398659 -0.791695
v -0.331007 0.672536 0.909434
v -0.342091 0.676918 0.939887
v 0.000000 0.403292 -1.000000
v -0.642788 0.403292 -0.766044
v -0.664311 0.398659 -0.791695
v 0.000000 0.398659 -1.033485
v -0.838139 0.672536 0.483900
v -0.866204 0.676918 0.500103
v -0.984808 0.403292 -0.173648
v -1.017784 0.398659 -0.179463
v -0.953097 0.672536 -0.168057
v -0.985011 0.676918 -0.173684
v -0.957830 -0.601229 -0.168891
v -0.989267 -0.605228 -0.174434
v 0.342020 -0.358673 0.939693
v 0.353245 -0.354711 0.970534
v -0.625180 -0.601229 -0.745060
v -0.645698 -0.605228 -0.769513
v -0.342020 -0.358673 0.939693
v -0.353246 -0.354711 0.970534
v 0.625179 -0.601229 -0.745060
v 0.000000 -0.601229 -0.972606
v 0.000000 -0.605228 -1.004528
v 0.645698 -0.605228 -0.769513
v -0.866025 -0.358673 0.500000
v -0.894449 -0.354711 0.516410
v -0.573387 0.962874 -0.683336
v -0.878480 0.962874 -0.154900
v -0.666625 0.962874 -0.117544
v -0.435109 0.962874 -0.518542
v -0.305093 -0.962874 0.838236
v -0.772522 -0.962874 0.446016
v -0.554342 -0.962874 0.320049
v -0.218927 -0.962874 0.601496
v -0.772522 0.962874 0.446016
v -0.586220 0.962874 0.338454
v -0.305093 0.962874 0.838236
v -0.231517 0.962874 0.636086
v 0.305093 0.962874 0.838236
v 0.231516 0.962874 0.636086
v 0.772522 0.962874 0.446016
v 0.586220 0.962874 0.338455
v 0.573387 0.962874 -0.683336
v 0.000000 0.962874 -0.892032
v 0.000000 0.962874 -0.676909
v 0.435109 0.962874 -0.518542
v 0.878480 0.962874 -0.154900
v 0.666625 0.962874 -0.117544
v 0.305093 -0.962874 0.838236
v 0.218926 -0.962874 0.601496
v 0.772522 -0.962874 0.446016
v 0.554341 -0.962874 0.320049
v 0.000000 -0.962874 -0.892032
v 0.573387 -0.962874 -0.683336
v 0.411447 -0.962874 -0.490344
v 0.000000 -0.962874 -0.640098
v 0.878480 -0.962874 -0.154900
v 0.630374 -0.962874 -0.111152
v -0.573387 -0.962874 -0.683336
v -0.411447 -0.962874 -0.490344
v -0.878480 -0.962874 -0.154900
v -0.630374 -0.962874 -0.111152
v 0.435109 0.873272 -0.518542
v 0.000000 0.873272 -0.676909
v -0.435109 0.873272 -0.518542
v -0.666625 0.873272 -0.117544
v -0.586220 0.873272 0.338454
v -0.231517 0.873272 0.636086
v 0.231516 0.873272 0.636086
v 0.586220 0.873272 0.338455
v 0.666625 0.873272 -0.117544
v 0.000000 -0.883162 -0.640098
v 0.411447 -0.883162 -0.490344
v 0.630374 -0.883162 -0.111152
v 0.554341 -0.883162 0.320049
v 0.218926 -0.883162 0.601496
v -0.218927 -0.883162 0.601496
v -0.554342 -0.883162 0.320049
v -0.630374 -0.883162 -0.111152
v -0.411447 -0.883162 -0.490344
v -0.664311 0.549398 -0.791695
v 0.000000 0.549398 -1.033485
v -1.017784 0.549398 -0.179463
v -0.895024 0.549398 0.516742
v -0.353473 0.549398 0.971158
v 0.353472 0.549398 0.971158
v 0.895024 0.549398 0.516742
v 1.017784 0.549398 -0.179463
v 0.664311 0.549398 -0.791695
v 0.000000 -0.478242 -1.032821
v 0.663885 -0.478242 -0.791187
v 1.017130 -0.478242 -0.179347
v 0.894449 -0.478242 0.516411
v 0.353245 -0.478242 0.970534
v -0.353246 -0.478242 0.970534
v -0.894449 -0.478242 0.516410
v -1.017130 -0.478242 -0.179347
v -0.663885 -0.478242 -0.791187
# 144 positions

vt 0.161931 0.637929
vt 0.413850 0.637464
vt 0.418089 0.649151
vt 0.157735 0.649633
vt 0.412524 0.759060
vt 0.168717 0.759134
vt 0.164631 0.747820
vt 0.416602 0.747744
vt 0.410965 0.758713
vt 0.167161 0.759931
vt 0.163023 0.748637
vt 0.414991 0.747378
vt 0.162196 0.639122
vt 0.414115 0.639121
vt 0.418333 0.650817
vt 0.157978 0.650817
vt 0.411812 0.755933
vt 0.168010 0.757729
vt 0.163845 0.746445
vt 0.415810 0.744589
vt 0.161434 0.636936
vt 0.413354 0.636936
vt 0.417571 0.648631
vt 0.157217 0.648632
vt 0.409460 0.757174
vt 0.165655 0.758161
vt 0.161527 0.746863
vt 0.413496 0.745843
vt 0.161115 0.638732
vt 0.413033 0.637712
vt 0.417298 0.649390
vt 0.156945 0.650444
vt 0.409298 0.756382
vt 0.165491 0.756382
vt 0.161409 0.745068
vt 0.413380 0.745068
vt 0.163072 0.269614
vt 0.408088 0.268623
vt 0.412154 0.279737
vt 0.159096 0.280761
vt 0.414943 0.378918
vt 0.163024 0.378918
vt 0.158890 0.367479
vt 0.419077 0.367479
vt 0.164884 0.267830
vt 0.409903 0.267829
vt 0.413924 0.278960
vt 0.160864 0.278961
vt 0.416465 0.379641
vt 0.164545 0.379717
vt 0.160408 0.368280
vt 0.420595 0.368201
vt 0.413125 0.379279
vt 0.161209 0.380538
vt 0.157018 0.369120
vt 0.417202 0.367820
vt 0.165646 0.270015
vt 0.410664 0.270015
vt 0.414685 0.281146
vt 0.161625 0.281146
vt 0.413073 0.376495
vt 0.161161 0.378350
vt 0.156943 0.366943
vt 0.417123 0.365027
vt 0.164699 0.268818
vt 0.409717 0.268364
vt 0.413759 0.279488
vt 0.160699 0.279956
vt 0.411980 0.377743
vt 0.160063 0.378762
vt 0.155883 0.367341
vt 0.416068 0.366288
vt 0.163075 0.638315
vt 0.414987 0.636460
vt 0.419291 0.648124
vt 0.158943 0.650041
vt 0.410059 0.758568
vt 0.166252 0.758568
vt 0.162170 0.747253
vt 0.414141 0.747253
vt 0.162508 0.640506
vt 0.414425 0.639247
vt 0.418701 0.650922
vt 0.158349 0.652223
vt 0.164624 0.639689
vt 0.416544 0.639612
vt 0.420765 0.651306
vt 0.160410 0.651385
vt 0.410015 0.756918
vt 0.166208 0.757368
vt 0.162105 0.746062
vt 0.414076 0.745596
vt 0.163024 0.638889
vt 0.414943 0.638889
vt 0.419161 0.650585
vt 0.158807 0.650585
vt 0.167134 0.759091
vt 0.410678 0.759145
vt 0.414782 0.747844
vt 0.163084 0.747788
vt 0.415013 0.639828
vt 0.163367 0.639772
vt 0.159126 0.651454
vt 0.419198 0.651512
vt 0.410887 0.758336
vt 0.167080 0.758336
vt 0.162998 0.747021
vt 0.414969 0.747021
vt 0.412444 0.271118
vt 0.167691 0.271063
vt 0.163648 0.282181
vt 0.416434 0.282238
vt 0.413353 0.376965
vt 0.161434 0.376965
vt 0.157300 0.365526
vt 0.417488 0.365526
vt 0.166474 0.269783
vt 0.411493 0.269782
vt 0.415514 0.280914
vt 0.162454 0.280914
vt 0.414115 0.379150
vt 0.162195 0.379150
vt 0.158061 0.367712
vt 0.418249 0.367711
vt 0.167963 0.270581
vt 0.412981 0.270506
vt 0.417005 0.281636
vt 0.163945 0.281713
vt 0.164114 0.271387
vt 0.409130 0.270162
vt 0.413206 0.281273
vt 0.160149 0.282538
vt 0.413369 0.377493
vt 0.161451 0.377959
vt 0.157296 0.366528
vt 0.417483 0.366047
vt 0.163807 0.269193
vt 0.408819 0.267389
vt 0.412922 0.278490
vt 0.159869 0.280353
vt 0.163985 0.380080
vt 0.415631 0.380137
vt 0.419788 0.368711
vt 0.159882 0.368653
vt 0.176624 0.860806
vt 0.401343 0.860806
vt 0.374247 0.935254
vt 0.203720 0.935254
vt 0.399334 0.141883
vt 0.174614 0.142300
vt 0.206186 0.055054
vt 0.367439 0.054755
vt 0.400900 0.861504
vt 0.176423 0.861453
vt 0.203314 0.935827
vt 0.373656 0.935866
vt 0.175941 0.859821
vt 0.400660 0.859406
vt 0.373701 0.933904
vt 0.203175 0.934219
vt 0.175795 0.861038
vt 0.400515 0.861038
vt 0.373419 0.935486
vt 0.202892 0.935486
vt 0.175034 0.858853
vt 0.399754 0.858853
vt 0.372657 0.933301
vt 0.202131 0.933301
vt 0.178291 0.861601
vt 0.403012 0.861533
vt 0.375937 0.935989
vt 0.205411 0.936041
vt 0.175613 0.860592
vt 0.400332 0.859682
vt 0.373536 0.934240
vt 0.203011 0.934930
vt 0.178309 0.860126
vt 0.403023 0.858471
vt 0.376475 0.933117
vt 0.205953 0.934373
vt 0.177216 0.862353
vt 0.401933 0.861230
vt 0.375209 0.935812
vt 0.204685 0.936664
vt 0.400515 0.143515
vt 0.175795 0.143515
vt 0.207528 0.056328
vt 0.368781 0.056328
vt 0.399753 0.141329
vt 0.175033 0.141330
vt 0.206766 0.054143
vt 0.368020 0.054143
vt 0.402793 0.144010
vt 0.178073 0.144078
vt 0.209780 0.056882
vt 0.371033 0.056832
vt 0.397427 0.142165
vt 0.172709 0.143075
vt 0.204089 0.055760
vt 0.365341 0.055107
vt 0.397739 0.140967
vt 0.173025 0.142622
vt 0.204115 0.055204
vt 0.365364 0.054017
vt 0.398348 0.143715
vt 0.173631 0.144838
vt 0.204929 0.057494
vt 0.366180 0.056688
vt 0.401343 0.143283
vt 0.176623 0.143283
vt 0.208356 0.056096
vt 0.369609 0.056096
vt 0.178130 0.144702
vt 0.402607 0.144752
vt 0.371115 0.057652
vt 0.210037 0.057616
vt 0.849211 0.611438
vt 0.703345 0.659198
vt 0.560905 0.602023
vt 0.488541 0.466667
vt 0.520113 0.316463
vt 0.640847 0.221694
vt 0.794252 0.226703
vt 0.908546 0.329147
vt 0.930251 0.481090
vt 0.851689 0.609710
vt 0.705993 0.659232
vt 0.562551 0.603516
vt 0.488482 0.468633
vt 0.518443 0.317696
vt 0.638415 0.221329
vt 0.792262 0.224625
vt 0.907997 0.326040
vt 0.931467 0.478122
vt 0.418958 0.702351
vt 0.158606 0.703652
vt 0.419161 0.702015
vt 0.158807 0.702014
vt 0.159003 0.702829
vt 0.419076 0.702887
vt 0.418184 0.700581
vt 0.157830 0.701063
vt 0.418333 0.702247
vt 0.157978 0.702247
vt 0.417571 0.700061
vt 0.157217 0.700061
vt 0.417506 0.700820
vt 0.157153 0.701874
vt 0.419670 0.699552
vt 0.159322 0.701470
vt 0.420780 0.702736
vt 0.160426 0.702815
vt 0.420582 0.326054
vt 0.160395 0.326133
vt 0.416812 0.322881
vt 0.156632 0.324797
vt 0.415898 0.324141
vt 0.155712 0.325194
vt 0.417487 0.323379
vt 0.157300 0.323379
vt 0.418249 0.325564
vt 0.158061 0.325565
vt 0.417405 0.323900
vt 0.157218 0.324381
vt 0.159983 0.326551
vt 0.419889 0.326609
vt 0.419077 0.325332
vt 0.158890 0.325332
vt 0.416992 0.325674
vt 0.156807 0.326974
vt 0.373419 0.966058
vt 0.202892 0.966057
vt 0.206766 0.026946
vt 0.368020 0.026946
vt 0.376701 0.963687
vt 0.206178 0.964943
vt 0.375361 0.966383
vt 0.204837 0.967235
vt 0.373758 0.964475
vt 0.203232 0.964790
vt 0.373660 0.964810
vt 0.203135 0.965501
vt 0.203241 0.966366
vt 0.373583 0.966404
vt 0.372657 0.963872
vt 0.202131 0.963872
vt 0.375946 0.966560
vt 0.205420 0.966612
vt 0.374247 0.965825
vt 0.203720 0.965825
vt 0.209772 0.029685
vt 0.371025 0.029636
vt 0.208356 0.028899
vt 0.369609 0.028899
vt 0.207528 0.029131
vt 0.368781 0.029132
vt 0.203915 0.028008
vt 0.365164 0.026821
vt 0.204793 0.030297
vt 0.366044 0.029492
vt 0.206136 0.027857
vt 0.367389 0.027559
vt 0.203979 0.028563
vt 0.365231 0.027911
vt 0.371180 0.030484
vt 0.210102 0.030448
# 306 texture coordinates

vn 0.093635 -0.989333 -0.111590
vn -0.048715 0.989805 0.133843
vn 0.048715 0.989805 0.133843
vn 0.000000 -0.989333 -0.145671
vn -0.123350 0.989805 0.071216
vn -0.093636 -0.989333 -0.111591
vn -0.140267 0.989805 -0.024733
vn -0.143457 -0.989333 -0.025295
vn -0.091552 0.989805 -0.109107
vn -0.130138 -0.991230 -0.022947
vn 0.110346 0.991849 0.063708
vn -0.084941 -0.991230 -0.101229
vn -0.043578 0.991850 0.119731
vn 0.043578 0.991850 0.119731
vn 0.000000 -0.991230 -0.132144
vn -0.110346 0.991849 0.063708
vn 0.084941 -0.991230 -0.101229
vn -0.125480 0.991849 -0.022126
vn -0.126154 -0.989333 0.072835
vn 0.000000 0.989805 -0.142427
vn 0.049822 -0.989333 0.136885
vn -0.049822 -0.989333 0.136885
vn 0.091552 0.989805 -0.109107
vn 0.126154 -0.989333 0.072835
vn 0.140267 0.989805 -0.024733
vn 0.143457 -0.989333 -0.025295
vn 0.123350 0.989805 0.071216
vn 0.130138 -0.991230 -0.022947
vn -0.081902 0.991849 -0.097607
vn 0.114443 -0.991230 0.066074
vn 0.000000 0.991849 -0.127419
vn -0.045197 -0.991230 0.124177
vn 0.045197 -0.991230 0.124177
vn 0.081902 0.991849 -0.097607
vn -0.114442 -0.991230 0.066073
vn 0.125481 0.991849 -0.022126
vn 0.000000 1.000000 0.000000
vn 0.000000 -1.000000 0.000000
vn -0.334761 -0.204921 -0.919751
vn -0.847647 -0.204923 -0.489388
vn -0.963909 -0.204921 0.169963
vn -0.342020 0.000000 -0.939693
vn -0.866025 0.000000 -0.500000
vn -0.984808 0.000000 0.173649
vn -0.642788 0.000000 0.766044
vn 0.000000 0.000000 1.000000
vn 0.642787 0.000000 0.766045
vn 0.984808 0.000000 0.173649
vn 0.866025 0.000000 -0.500000
vn 0.342020 0.000000 -0.939693
vn -0.332178 0.238171 -0.912651
vn -0.841104 0.238171 -0.485612
vn -0.956468 0.238171 0.168652
vn -0.624291 0.238169 0.744000
vn 0.000000 0.238168 0.971224
vn 0.624291 0.238168 0.744001
vn 0.956468 0.238171 0.168652
vn 0.841104 0.238171 -0.485612
vn 0.332178 0.238170 -0.912651
vn 0.334762 -0.204925 -0.919750
vn 0.847647 -0.204923 -0.489389
vn 0.963909 -0.204921 0.169963
vn 0.629147 -0.204920 0.749788
vn 0.000000 -0.204919 0.978779
vn -0.629147 -0.204920 0.749788
vn -0.334762 -0.204925 -0.919750
vn 0.000000 0.000000 -1.000000
vn -0.642787 0.000000 -0.766045
vn -0.866025 0.000000 0.500000
vn 0.342020 0.000000 0.939693
vn 0.642788 0.000000 -0.766044
vn -0.984808 0.000000 -0.173649
vn 0.984808 0.000000 -0.173648
vn -0.342020 0.000000 0.939693
vn 0.866025 0.000000 0.500000
vn 0.334762 -0.204920 -0.919751
# 76 normals

usemtl Material
f 1/1/1 2/2/1 3/3/1 4/4/1
f 5/5/2 6/6/2 7/7/2 8/8/2
f 9/9/3 5/10/3 8/11/3 10/12/3
f 2/13/4 11/14/4 12/15/4 3/16/4
f 6/17/5 13/18/5 14/19/5 7/20/5
f 11/21/6 15/22/6 16/23/6 12/24/6
f 13/25/7 17/26/7 18/27/7 14/28/7
f 15/29/8 19/30/8 20/31/8 16/32/8
f 17/33/9 21/34/9 22/35/9 18/36/9
f 23/37/10 24/38/10 25/39/10 26/40/10
f 27/41/11 28/42/11 29/43/11 30/44/11
f 31/45/12 23/46/12 26/47/12 32/48/12
f 33/49/13 34/50/13 35/51/13 36/52/13
f 28/53/14 33/54/14 36/55/14 29/56/14
f 37/57/15 31/58/15 32/59/15 38/60/15
f 34/61/16 39/62/16 40/63/16 35/64/16
f 41/65/17 37/66/17 38/67/17 42/68/17
f 39/69/18 43/70/18 44/71/18 40/72/18
f 19/73/19 45/74/19 46/75/19 20/76/19
f 21/77/20 47/78/20 48/79/20 22/80/20
f 49/81/21 50/82/21 51/83/21 52/84/21
f 45/85/22 49/86/22 52/87/22 46/88/22
f 47/89/23 53/90/23 54/91/23 48/92/23
f 50/93/24 55/94/24 56/95/24 51/96/24
f 53/97/25 57/98/25 58/99/25 54/100/25
f 55/101/26 1/102/26 4/103/26 56/104/26
f 57/105/27 9/106/27 10/107/27 58/108/27
f 59/109/28 41/110/28 42/111/28 60/112/28
f 43/113/29 61/114/29 62/115/29 44/116/29
f 63/117/30 59/118/30 60/119/30 64/120/30
f 61/121/31 65/122/31 66/123/31 62/124/31
f 67/125/32 68/126/32 69/127/32 70/128/32
f 68/129/33 63/130/33 64/131/33 69/132/33
f 65/133/34 71/134/34 72/135/34 66/136/34
f 24/137/35 67/138/35 70/139/35 25/140/35
f 71/141/36 27/142/36 30/143/36 72/144/36
f 73/145/37 74/146/37 75/147/37 76/148/37
f 77/149/38 78/150/38 79/151/38 80/152/38
f 74/153/37 81/154/37 82/155/37 75/156/37
f 81/157/37 83/158/37 84/159/37 82/160/37
f 83/161/37 85/162/37 86/163/37 84/164/37
f 85/165/37 87/166/37 88/167/37 86/168/37
f 89/169/37 90/170/37 91/171/37 92/172/37
f 87/173/37 93/174/37 94/175/37 88/176/37
f 93/177/37 89/178/37 92/179/37 94/180/37
f 90/181/37 73/182/37 76/183/37 91/184/37
f 95/185/38 77/186/38 80/187/38 96/188/38
f 97/189/38 95/190/38 96/191/38 98/192/38
f 99/193/38 100/194/38 101/195/38 102/196/38
f 103/197/38 97/198/38 98/199/38 104/200/38
f 100/201/38 103/202/38 104/203/38 101/204/38
f 105/205/38 99/206/38 102/207/38 106/208/38
f 107/209/38 105/210/38 106/211/38 108/212/38
f 78/213/38 107/214/38 108/215/38 79/216/38
f 105/205/39 63/130/39 68/129/39 99/206/39
f 107/209/40 59/118/40 63/117/40 105/210/40
f 78/213/41 41/110/41 59/109/41 107/214/41
f 109/217/37 110/218/37 111/219/37 112/220/37 113/221/37 114/222/37 115/223/37 116/224/37 117/225/37
f 118/226/38 119/227/38 120/228/38 121/229/38 122/230/38 123/231/38 124/232/38 125/233/38 126/234/38
f 51/83/42 127/235/42 128/236/42 52/84/42
f 56/95/43 129/237/43 127/238/43 51/96/43
f 4/103/44 130/239/44 129/240/44 56/104/44
f 3/3/45 131/241/45 130/242/45 4/4/45
f 12/15/46 132/243/46 131/244/46 3/16/46
f 16/23/47 133/245/47 132/246/47 12/24/47
f 20/31/48 134/247/48 133/248/48 16/32/48
f 46/75/49 135/249/49 134/250/49 20/76/49
f 52/87/50 128/251/50 135/252/50 46/88/50
f 127/235/51 10/12/51 8/11/51 128/236/51
f 129/237/52 58/108/52 10/107/52 127/238/52
f 130/239/53 54/100/53 58/99/53 129/240/53
f 131/241/54 48/92/54 54/91/54 130/242/54
f 132/243/55 22/80/55 48/79/55 131/244/55
f 133/245/56 18/36/56 22/35/56 132/246/56
f 134/247/57 14/28/57 18/27/57 133/248/57
f 135/249/58 7/20/58 14/19/58 134/250/58
f 128/251/59 8/8/59 7/7/59 135/252/59
f 69/127/60 136/253/60 137/254/60 70/128/60
f 70/139/61 137/255/61 138/256/61 25/140/61
f 25/39/62 138/257/62 139/258/62 26/40/62
f 26/47/63 139/259/63 140/260/63 32/48/63
f 32/59/64 140/261/64 141/262/64 38/60/64
f 38/67/65 141/263/65 142/264/65 42/68/65
f 42/111/41 142/265/41 143/266/41 60/112/41
f 60/119/40 143/267/40 144/268/40 64/120/40
f 64/131/66 144/269/66 136/270/66 69/132/66
f 144/269/42 29/56/42 36/55/42 136/270/42
f 143/267/43 30/44/43 29/43/43 144/268/43
f 142/265/44 72/144/44 30/143/44 143/266/44
f 141/263/45 66/136/45 72/135/45 142/264/45
f 140/261/46 62/124/46 66/123/46 141/262/46
f 139/259/47 44/116/47 62/115/47 140/260/47
f 138/257/48 40/72/48 44/71/48 139/258/48
f 137/255/49 35/64/49 40/63/49 138/256/49
f 136/253/50 36/52/50 35/51/50 137/254/50
f 5/5/59 90/170/59 89/169/59 6/6/59
f 6/17/58 89/178/58 93/177/58 13/18/58
f 13/25/57 93/174/57 87/173/57 17/26/57
f 17/33/56 87/166/56 85/165/56 21/34/56
f 21/77/55 85/162/55 83/161/55 47/78/55
f 47/89/54 83/158/54 81/157/54 53/90/54
f 53/97/53 81/154/53 74/153/53 57/98/53
f 57/105/52 74/146/52 73/145/52 9/106/52
f 9/9/51 73/182/51 90/181/51 5/10/51
f 84/164/67 86/163/67 115/271/67 114/272/67
f 98/192/68 96/191/68 122/273/68 121/274/68
f 94/180/69 92/179/69 109/275/69 117/276/69
f 91/184/70 76/183/70 111/277/70 110/278/70
f 82/160/71 84/159/71 114/279/71 113/280/71
f 88/176/72 94/175/72 117/281/72 116/282/72
f 75/156/73 82/155/73 113/283/73 112/284/73
f 86/168/68 88/167/68 116/285/68 115/286/68
f 92/172/74 91/171/74 110/287/74 109/288/74
f 76/148/75 75/147/75 112/289/75 111/290/75
f 102/196/74 101/195/74 119/291/74 118/292/74
f 108/212/75 106/211/75 126/293/75 125/294/75
f 96/188/67 80/187/67 123/295/67 122/296/67
f 101/204/69 104/203/69 120/297/69 119/298/69
f 106/208/70 102/207/70 118/299/70 126/300/70
f 80/152/71 79/151/71 124/301/71 123/302/71
f 104/200/72 98/199/72 121/303/72 120/304/72
f 79/216/73 108/215/73 125/305/73 124/306/73
f 33/49/50 49/86/50 45/85/50 34/50/50
f 34/61/49 45/74/49 19/73/49 39/62/49
f 39/69/48 19/30/48 15/29/48 43/70/48
f 43/113/47 15/22/47 11/21/47 61/114/47
f 61/121/46 11/14/46 2/13/46 65/122/46
f 65/133/45 2/2/45 1/1/45 71/134/45
f 71/141/44 1/102/44 55/101/44 27/142/44
f 27/41/43 55/94/43 50/93/43 28/42/43
f 28/53/42 50/82/42 49/81/42 33/54/42
f 77/149/65 37/66/65 41/65/65 78/150/65
f 95/185/64 31/58/64 37/57/64 77/186/64
f 97/189/63 23/46/63 31/45/63 95/190/63
f 103/197/62 24/38/62 23/37/62 97/198/62
f 100/201/61 67/138/61 24/137/61 103/202/61
f 99/193/76 68/126/76 67/125/76 100/194/76

# 137 faces
